# xmcd
# Track frame offsets:
# 150
# 15496
# 35746
# 50010
# 65778
# 83297
# 99554
# 114032
# 126634
# 146704
# 156452
# 171259
# 184816
# 201335
# 225572
# 238502
# 252053
# 268398
# 289802
#
# Disc length: 4035 seconds
# Revision: 0
# Processed by: cddbd v1.5.2PL0 Copyright (c) Steve Scherf et al.
# Submitted via: VisiTrax 2.11.3.279 - For more info visit www.synapsa.com
#
DISCID=190fc113
DTITLE=Various Artist - Men Of Country 2017 CD 1
DYEAR=2017
DGENRE=Country
TTITLE0=Nothin' But A Good - Adam Brand And The Outlaws
TTITLE1=Tim McGraw - Last Dollar (Fly Away)
TTITLE2=Chase Rice - 50 Shades Of Crazy
TTITLE3=Jake Owen - Anywhere With You
TTITLE4=Dwight Yoakam - Suspicious Minds (Remastered Version)
TTITLE5=Lee Brice - Love Like Crazy
TTITLE6=Cole Swindell - Ain't Worth The Whiskey
TTITLE7=LANco - Trouble Maker
TTITLE8=Troy Cassar-Daley With Jimmy Barnes Featuring Bella - Bird On A Wire
TTITLE9=Merle Haggard - Mama Tried
TTITLE10=Willie Nelson - He Won't Ever Be Gone
TTITLE11=Adam Harvey - Genie In The Bottle
TTITLE12=Brooks and Dunn - How Long Gone
TTITLE13=Brad Paisley - Then
TTITLE14=Old Dominion - Half Empty
TTITLE15=Brett Eldredge - Don't Ya
TTITLE16=Levon - Why Oh Why
TTITLE17=Alabama - Dancin', Shaggin' On The Boulevard
TTITLE18=Seth Ennis - Woke Up In Nashville
EXTD=
EXTT0=
EXTT1=
EXTT2=
EXTT3=
EXTT4=
EXTT5=
EXTT6=
EXTT7=
EXTT8=
EXTT9=
EXTT10=
EXTT11=
EXTT12=
EXTT13=
EXTT14=
EXTT15=
EXTT16=
EXTT17=
EXTT18=
PLAYORDER=
